
<svg version="1.0" xmlns="http://www.w3.org/2000/svg"
 width="225.000000pt" height="225.000000pt" viewBox="0 0 225.000000 225.000000"
 preserveAspectRatio="xMidYMid meet">

<g transform="translate(0.000000,225.000000) scale(0.100000,-0.100000)"
fill="#000000" stroke="none">
<path d="M0 1125 l0 -1125 1125 0 1125 0 0 1125 0 1125 -1125 0 -1125 0 0
-1125z m978 490 c18 -30 31 -59 27 -64 -3 -6 -46 -33 -95 -61 -50 -28 -90 -55
-90 -58 1 -10 282 -167 300 -167 17 0 299 157 300 166 0 4 -43 32 -95 63 -52
31 -95 59 -95 61 0 4 59 107 66 114 2 2 80 -41 173 -95 l171 -99 0 -202 0
-203 -70 0 -70 0 0 119 0 120 -142 -81 c-79 -45 -149 -86 -156 -93 -9 -8 -12
-54 -10 -183 l3 -172 98 56 c54 31 102 52 107 48 4 -5 22 -32 38 -60 l30 -51
-169 -97 c-93 -53 -173 -96 -179 -96 -13 0 -309 167 -329 186 -11 10 -8 21 18
68 18 31 35 56 38 56 3 0 40 -20 82 -44 42 -24 86 -48 99 -55 l22 -12 0 178
-1 178 -152 86 -152 86 -3 -118 -3 -119 -70 0 -69 0 2 202 3 203 165 97 c91
54 167 98 170 98 3 0 20 -25 38 -55z m847 -160 c51 -50 20 -129 -50 -129 -71
0 -104 90 -49 133 35 28 69 26 99 -4z"/>
<path d="M1732 1448 c-17 -17 -15 -74 4 -92 49 -50 118 20 84 85 -12 22 -68
27 -88 7z m76 -48 c0 -44 -5 -48 -24 -22 -13 16 -13 16 -14 0 0 -10 -7 -18
-15 -18 -11 0 -15 11 -15 40 0 39 1 40 34 40 34 0 35 -1 34 -40z"/>
</g>
</svg>
